# xmcd
#
# Track frame offsets: 
#        300
#        22895
#        46009
#        70132
#        92050
#        115531
#        130339
#        159053
#        175030
#        195596
#        217911
#
# Disc length: 3228 seconds
#
# Revision: 3
# Processed by: cddbd v1.5.2PL0 Copyright (c) Steve Scherf et al.
# Submitted via: ExactAudioCopy v1.0b1
#
DISCID=7e0c980b
DTITLE=Blues Company - From Daybreak To Heartbreak
DYEAR=2003
DGENRE=
TTITLE0=The River
TTITLE1=Listen What I Say
TTITLE2=Over The City
TTITLE3=Wait A Minute
TTITLE4=Over
TTITLE5=Get In The Groove
TTITLE6=Blues Is A Feeling
TTITLE7=21st Century Blues
TTITLE8=Keepin' The Blues Alive
TTITLE9=Commercials
TTITLE10=Blues For Mick
EXTD=
EXTT0=
EXTT1=
EXTT2=
EXTT3=
EXTT4=
EXTT5=
EXTT6=
EXTT7=
EXTT8=
EXTT9=
EXTT10=
PLAYORDER=
